<svg xmlns="http://www.w3.org/2000/svg"
     viewBox="0 0 640 640">

  <defs>
    <linearGradient id="cloudGradient" x1="0%" y1="0%" x2="100%" y2="100%">
      <stop offset="0%" stop-color="#C084FC"/>
      <stop offset="70%" stop-color="#8B5CF6"/>
      <stop offset="100%" stop-color="#2563EB"/>
    </linearGradient>
  </defs>

  <path fill="url(#cloudGradient)"
    d="M176 544C96.5 544 32 479.5 32 400C32 336.6 73 282.8 129.9 263.5C128.6 255.8 128 248 128 240C128 160.5 192.5 96 272 96C327.4 96 375.5 127.3 399.6 173.1C413.8 164.8 430.4 160 448 160C501 160 544 203 544 256C544 271.7 540.2 286.6 533.5 299.7C577.5 320 608 364.4 608 416C608 486.7 550.7 544 480 544L176 544zM337 255C327.6 245.6 312.4 245.6 303.1 255L231.1 327C221.7 336.4 221.7 351.6 231.1 360.9C240.5 370.2 255.7 370.3 265 360.9L296 329.9L296 432C296 445.3 306.7 456 320 456C333.3 456 344 445.3 344 432L344 329.9L375 360.9C384.4 370.3 399.6 370.3 408.9 360.9C418.2 351.5 418.3 336.3 408.9 327L336.9 255z"/>
</svg>