<svg width="643" height="400" viewBox="0 0 643 400" fill="none" xmlns="http://www.w3.org/2000/svg" style="width: 100%; height: 100%;">
<g clip-path="url(#clip0_35_1629)">
<path d="M415.407 361.268C415.734 357.81 415.892 350.801 416.219 347.343C413.202 346.923 410.156 346.682 407.103 346.621C406.469 341.915 404.374 337.197 401.541 334.079C404.048 332.082 405.966 330.363 408.398 328.404C406.435 325.615 403.4 320.947 399.475 316.382C396.136 318.648 395.112 319.239 392.633 321.481C390.875 318.572 390.247 317.67 386.387 315.603C383.882 314.261 381.795 313.793 378.16 313.773C378.535 310.6 378.455 309.396 378.934 305.34C372.404 305.303 366.174 305.662 363.237 305.111C362.689 308.034 362.811 309.931 362.531 313.581C360.97 313.572 358.051 313.841 355.489 314.464C352.341 315.229 349.986 316.953 348.498 318.394C346.233 316.025 344.558 314.591 342.731 313.384C335.63 319.49 330.776 323.7 330.983 324.001C332.192 325.766 334.618 328.276 336.612 330.063C334.543 332.295 332.803 335.112 332.385 337.457C331.968 339.802 331.707 340.19 331.676 342.564C328.951 342.315 324.17 342.706 321.021 342.822C321.054 347.914 321.088 353.005 321.121 358.096C321.121 358.25 321.126 358.415 321.213 358.541C321.342 358.726 321.598 358.76 321.826 358.779C325.189 359.045 327.809 358.547 331.172 358.814C331.148 363.31 333.482 367.679 335.881 371.577C334.083 373.564 331.397 376.208 329.496 377.921C333.506 381.479 336.586 385.582 340.596 389.141C342.515 387.689 346.148 384.764 348.067 383.312C349.762 385.852 356.595 390.305 362.556 388.272C362.633 391.076 361.616 397.079 363.195 397.693C366.876 399.126 374.353 397.511 378.33 397.442C379.436 394.286 378.046 391.314 379.152 388.158C383.136 387.251 386.936 384.656 390.964 381.022C392.438 382.968 394.019 385.046 395.855 386.87C395.998 387.012 396.168 387.163 396.371 387.15C396.529 387.14 396.663 387.034 396.786 386.932C399.982 384.278 403.109 381.542 406.164 378.728C406.332 378.573 406.512 378.394 406.527 378.168C406.542 377.937 406.379 377.74 406.226 377.569C404.321 375.444 402.416 373.318 400.512 371.193C403.17 368.51 405 364.905 406.014 361.096C417.456 361.586 415.325 362.116 415.406 361.269L415.407 361.268ZM387.13 354.308C385.886 364.33 379.647 368.193 375.32 369.206C371.225 370.165 365.05 370.566 360.139 368.263C356.375 366.498 354.242 363.88 352.371 360.176C350.344 356.163 349.116 351.405 350.634 347.111C351.864 343.631 354.633 339.889 357.64 337.719C361.162 335.178 365.248 334.151 369.543 333.723C373.838 333.295 379.384 333.866 382.287 337.858C386.629 342.763 387.787 349.008 387.13 354.306V354.308Z" fill="white" stroke="#010101" stroke-width="1.5" stroke-linecap="round" stroke-linejoin="round"></path>
<path d="M445.302 84.916C425.839 169.521 400.388 265.873 377.114 350.389H40.848C40.636 337.228 42.165 312.961 44.773 300.059C58.455 232.358 76.498 154.848 91.446 87.297C211.554 87.297 309.809 84.916 445.302 84.916Z" fill="#E3E3FF" stroke="#010101" stroke-width="1.5" stroke-linecap="round" stroke-linejoin="round"></path>
<path d="M590.141 22.156C591.42 13.414 592.406 10.432 593.685 1.69005C520.703 -0.605955 376.626 2.02505 376.626 2.02505L374.011 21.886C374.011 21.886 513.876 22.105 590.141 22.156Z" fill="#010101" stroke="#010101" stroke-width="1.5" stroke-linecap="round" stroke-linejoin="round"></path>
<path d="M373.889 21.6231C368.635 65.5321 353.496 154.084 353.496 154.084L570.37 153.407L590.141 22.1561C590.141 22.1561 403.328 21.6221 373.89 21.6221L373.889 21.6231Z" fill="white" stroke="#010101" stroke-width="1.5" stroke-linecap="round" stroke-linejoin="round"></path>
<path d="M546.949 270.081C548.586 271.718 550.222 273.354 551.859 274.991" stroke="#010101" stroke-width="1.5" stroke-linecap="round" stroke-linejoin="round"></path>
<path d="M614.866 46.692C617.594 45.192 620.321 43.692 623.049 42.191" stroke="#010101" stroke-width="1.5" stroke-linecap="round" stroke-linejoin="round"></path>
<path d="M437.518 74.89L441.423 42.191H523.171L518.266 74.89H437.518Z" fill="white" stroke="#010101" stroke-width="1.5" stroke-linecap="round" stroke-linejoin="round"></path>
<path d="M379.749 130.447L383.654 97.7471H465.402L460.497 130.447H379.749Z" fill="#7B5FF1" stroke="#010101" stroke-width="1.5" stroke-linecap="round" stroke-linejoin="round"></path>
<path d="M555.129 130.447L560.033 97.7471H641.782L635.877 130.447H555.129Z" fill="#E3E3FF" stroke="#010101" stroke-width="1.5" stroke-linecap="round" stroke-linejoin="round"></path>
<path d="M114.639 350.318C106.732 335.532 97.462 320.472 89.261 305.847C84.216 296.85 78.988 287.816 71.851 280.369C67.884 276.23 63.228 272.553 57.76 270.829C55.703 270.18 53.342 269.851 51.481 270.943C49.883 271.881 48.998 273.672 48.41 275.429C45.696 283.534 47.519 292.415 49.925 300.617C54.875 317.492 63.282 334.86 71.67 350.39C88.247 350.39 100.506 350.319 114.637 350.319L114.639 350.318Z" fill="#55D087" stroke="#010101" stroke-width="1.5" stroke-linecap="round" stroke-linejoin="round"></path>
<path d="M32.438 351.045C32.238 351.195 24.51 337.545 19.098 323.616C16.399 316.669 14.113 309.363 14.434 301.916C14.581 298.517 15.511 294.777 18.362 292.922C20.479 291.545 23.214 291.524 25.692 292.008C29.481 292.748 32.994 294.533 36.229 296.641C45.283 302.541 52.432 311.015 58.092 320.221C63.752 329.427 68.566 339.951 72.281 350.365C54.296 351.058 43.041 350.635 32.438 351.044V351.045Z" fill="#55D087" stroke="#010101" stroke-width="1.5" stroke-linecap="round" stroke-linejoin="round"></path>
<path d="M53.051 271.16C66.365 297.539 80.084 323.713 94.204 349.67" stroke="#010101" stroke-width="1.5" stroke-linecap="round" stroke-linejoin="round"></path>
<path d="M19.934 293.083C30.544 312.268 41.271 331.388 52.115 350.441" stroke="#010101" stroke-width="1.5" stroke-linecap="round" stroke-linejoin="round"></path>
<path d="M221.095 178.732C225.756 183.538 233.147 184.338 239.834 183.999C244.162 183.78 248.523 183.193 252.548 181.587C256.573 179.982 260.264 177.28 261.725 173.876C266.078 210.866 255.421 247.762 251.383 284.787C250.86 289.581 250.52 294.739 252.87 299.581C234.572 302.9 215.997 304.69 197.599 303.738C202.276 270.075 207.728 236.519 213.951 203.107C215.006 197.44 216.345 191.312 221.097 178.731L221.095 178.732Z" fill="white" stroke="#010101" stroke-width="1.5" stroke-linecap="round" stroke-linejoin="round"></path>
<path d="M260.836 119.218C261.908 118.268 261.935 116.586 261.542 115.208C261.15 113.83 260.426 112.537 260.268 111.113C260.168 110.217 260.298 109.312 260.275 108.41C260.181 104.777 257.278 101.412 253.697 100.789C252.875 100.646 252.005 100.624 251.275 100.219C250.184 99.6141 249.597 98.2501 248.412 97.8591C246.987 97.3881 245.592 98.5421 244.158 98.9841C242.97 99.3501 241.696 99.2191 240.452 99.2251C236.498 99.2461 232.707 100.69 229.017 102.114C227.526 102.689 226.009 103.28 224.761 104.278C224.048 104.848 223.438 105.541 222.711 106.094C221.738 106.835 220.59 107.304 219.535 107.923C216.916 109.458 214.942 111.865 213.027 114.222C211.646 115.921 210.222 117.71 209.782 119.855C209.45 121.477 209.715 123.161 209.574 124.811C209.461 126.138 209.087 127.428 208.905 128.747C208.4 132.409 209.391 136.095 210.373 139.659C210.724 140.934 211.079 142.219 211.677 143.399C212.085 144.205 212.602 144.951 213.127 145.687C216.796 150.822 220.996 155.578 225.638 159.853C225.941 160.132 226.271 160.422 226.679 160.485C227.393 160.596 227.998 159.988 228.449 159.423C232.15 154.777 234.696 149.217 235.796 143.38C236.671 138.734 236.778 133.602 239.794 129.961C243.681 125.269 250.644 125.022 256.283 122.713C257.301 122.296 258.345 121.425 260.834 119.22L260.836 119.218Z" fill="#010101" stroke="#010101" stroke-width="1.5" stroke-linecap="round" stroke-linejoin="round"></path>
<path d="M167.22 306.259C204.287 303.124 241.354 299.989 277.488 297.494C274.948 313.125 273.47 329.529 270.081 350.389H157.357C160.147 337.417 163.697 319.866 167.22 306.259Z" fill="#010101" stroke="#010101" stroke-width="1.5" stroke-linecap="round" stroke-linejoin="round"></path>
<path d="M222.21 138.847C219.615 139.814 218.873 144.645 219.879 147.082C221.712 151.52 225.626 151.035 226.945 150.532C227.246 157.399 227.346 164.274 226.875 171.104C224.727 171.772 222.58 172.44 220.432 173.108C219.802 173.304 219.14 173.52 218.701 174.012C218.294 174.468 218.142 175.092 218.034 175.693C217.251 180.076 218.232 184.837 221.055 188.28C222.896 190.526 225.412 192.129 228.04 193.364C231.643 195.056 235.587 196.126 239.566 196.053C245.178 195.95 250.632 193.535 254.818 189.796C259.004 186.057 261.963 181.06 263.712 175.727C264.853 172.247 264.881 168.009 263.979 164.948C259.797 165.483 256.263 166.732 253.11 167.209C252.895 162.698 252.785 160.708 253.297 157.183C259.037 156.905 263.637 151.748 265.01 146.167C266.383 140.586 265.194 134.711 263.64 129.178C262.6 125.474 261.391 121.805 259.746 118.327C258.437 115.561 256.442 112.634 253.407 112.241C250.491 111.864 247.923 113.969 245.234 115.159C241.57 116.781 237.111 116.861 234.16 119.572C231.296 122.204 230.776 126.505 230.9 130.393C231.039 134.746 231.756 139.081 233.028 143.247C231.789 143.709 231.414 143.626 230.175 144.087C228.782 141.994 227.084 137.032 222.212 138.848L222.21 138.847Z" fill="white" stroke="#010101" stroke-width="1.5" stroke-linecap="round" stroke-linejoin="round"></path>
<path d="M165.085 319.532C176.753 317.985 189.267 316.046 197.762 307.899C207.046 298.996 209.042 285.129 210.631 272.364C214.754 239.241 219.644 206.152 221.038 172.802C209.913 174.492 198.437 176.324 186.718 177.665C182.311 224.971 171.69 271.448 165.085 319.531V319.532Z" fill="#7B5FF1" stroke="#010101" stroke-width="1.5" stroke-linecap="round" stroke-linejoin="round"></path>
<path d="M189.886 241.319C187.154 229.28 186.57 216.758 188.171 204.517C189.921 191.13 194.231 178.23 197.303 165.083C200.375 151.936 202.195 138.099 198.927 125C195.023 109.351 184.239 96.2951 172.299 85.4521C166.533 80.2161 160.378 75.3241 153.463 71.7401C146.676 68.2231 139.249 66.0221 131.695 64.8471C104.566 60.6271 75.036 70.8141 58.2 92.5011C51.348 101.326 46.685 111.694 43.44 122.386C40.583 131.802 38.778 141.584 38.748 151.424C38.654 182.575 57.971 212.965 86.216 226.102C95.217 230.289 104.969 232.84 113.606 237.733C122.243 242.626 129.982 250.675 130.762 260.457C151.983 255.286 172.861 248.71 189.884 241.319H189.886Z" fill="white" stroke="#010101" stroke-width="1.5" stroke-linecap="round" stroke-linejoin="round"></path>
<path d="M215.108 174.051C212.462 179.991 209.815 185.931 207.169 191.872C206.96 192.341 206.746 192.849 206.848 193.352C206.937 193.793 207.252 194.148 207.556 194.479C209.801 196.935 212.046 199.392 214.55 201.661C211.488 206.777 208.427 211.894 205.365 217.01C204.972 217.667 204.566 218.366 204.561 219.131C204.557 219.815 204.873 220.455 205.183 221.066C208.014 226.646 210.845 232.227 213.676 237.807" stroke="#010101" stroke-width="1.5" stroke-linecap="round" stroke-linejoin="round"></path>
<path d="M141.759 238.218C133.838 227.374 124.73 217.397 114.651 208.523C99.418 195.111 81.009 182.86 75.048 163.459C73.627 158.835 73.019 153.781 74.533 149.186C76.047 144.591 80.048 140.606 84.868 140.191C88.354 139.891 91.738 141.413 94.733 143.221C101.173 147.109 106.692 152.51 110.718 158.864C112.601 161.836 113.726 166.588 110.596 168.195C108.716 169.16 106.434 168.208 104.665 167.054C93.89 160.025 89.663 144.538 95.373 133.009C95.971 131.801 96.685 130.611 97.741 129.774C99.1 128.696 100.879 128.315 102.604 128.136C115.389 126.812 128.398 136.272 131.079 148.843C131.422 150.452 131.599 152.2 130.892 153.686C130.185 155.172 128.31 156.202 126.835 155.472C126.193 155.154 125.729 154.571 125.305 153.994C120.77 147.827 118.269 140.19 118.276 132.535C118.28 128.86 118.897 125.058 120.938 122.002C125.211 115.606 134.854 114.513 141.609 118.193C148.364 121.873 152.497 129.125 154.592 136.526C155.151 138.501 155.588 140.619 155.001 142.586C154.414 144.553 152.474 146.257 150.452 145.898C148.56 145.562 147.383 143.69 146.568 141.95C144.789 138.148 143.574 134.083 142.976 129.929C142.589 127.243 142.056 123.098 142.968 120.542C143.931 117.839 145.507 114.05 150.553 112.795C153.017 112.182 157.066 114.816 158.716 116.746C170.642 130.689 170.143 155.047 169.62 173.388C169.097 191.728 166.356 210.339 170.719 228.176" stroke="#010101" stroke-width="1.5" stroke-linecap="round" stroke-linejoin="round"></path>
<path d="M420.959 140.939C428.641 133.18 435.141 126.783 442.824 119.024C444.004 117.832 446.677 115.721 447.984 117.372C448.915 118.548 447.289 122.839 440.851 128.369C447.283 122.264 450.323 119.665 456.755 113.56C457.568 112.788 458.592 111.956 459.576 112.26C460.584 112.571 460.925 113.996 460.559 115.108C460.193 116.22 459.337 117.078 458.515 117.882C453.801 122.495 453.867 123.225 449.154 127.838C455.152 121.73 455.556 120.777 462.193 115.52C463.292 114.649 464.795 113.768 465.826 114.573C468.018 116.81 463.58 120.63 460.189 123.673C458.246 125.416 456.378 127.053 451.648 131.028C456.514 127.246 458.312 125.443 463.186 121.674C464.101 120.966 465.088 120.23 466.177 120.16C467.266 120.09 468.409 121.023 468.191 122.189C468.052 122.931 467.446 123.482 466.883 123.961C461.663 128.403 460.129 130.456 454.909 134.898C458.743 131.73 459.162 131.35 463.454 129.034C464.729 128.346 466.594 127.876 467.164 129.192C467.691 130.408 466.477 131.762 465.411 132.611C454.919 140.966 446.678 146.373 436.186 154.728" fill="white"></path>
<path d="M420.959 140.939C428.641 133.18 435.141 126.783 442.824 119.024C444.004 117.832 446.677 115.721 447.984 117.372C448.915 118.548 447.289 122.839 440.851 128.369C447.283 122.264 450.323 119.665 456.755 113.56C457.568 112.788 458.592 111.956 459.576 112.26C460.584 112.571 460.925 113.996 460.559 115.108C460.193 116.22 459.337 117.078 458.515 117.882C453.801 122.495 453.867 123.225 449.154 127.838C455.152 121.73 455.556 120.777 462.193 115.52C463.292 114.649 464.795 113.768 465.826 114.573C468.018 116.81 463.58 120.63 460.189 123.673C458.246 125.416 456.378 127.053 451.648 131.028C456.514 127.246 458.312 125.443 463.186 121.674C464.101 120.966 465.088 120.23 466.177 120.16C467.266 120.09 468.409 121.023 468.191 122.189C468.052 122.931 467.446 123.482 466.883 123.961C461.663 128.403 460.129 130.456 454.909 134.898C458.743 131.73 459.162 131.35 463.454 129.034C464.729 128.346 466.594 127.876 467.164 129.192C467.691 130.408 466.477 131.762 465.411 132.611C454.919 140.966 446.678 146.373 436.186 154.728" stroke="#010101" stroke-width="1.5" stroke-linecap="round" stroke-linejoin="round"></path>
<path d="M440.851 128.369C441.859 130.278 442.705 132.304 443.01 134.441C443.315 136.578 443.043 138.847 441.94 140.704" stroke="#010101" stroke-width="1.5" stroke-linecap="round" stroke-linejoin="round"></path>
<path d="M276.278 311.804C282.453 273.678 288.628 235.551 294.803 197.425C312.096 205.519 329.74 211.909 347.448 217.964C357.754 221.488 368.954 224.924 379.331 221.612C387.669 218.951 394.054 212.35 400.066 205.989C416.319 188.794 432.571 171.599 448.824 154.404C440.188 146.205 431.731 138.936 423.63 131.289C404.032 147.779 385.807 165.294 368.196 183.405C350.142 175.654 332.329 168.955 314.516 162.257C311.068 160.961 307.599 159.658 303.977 158.986C289.783 156.353 275.752 163.614 261.351 165.317C257.035 212.308 254.131 234.639 248.081 281.852C247.412 287.07 248.053 292.442 249.404 297.526C250.755 302.61 253.574 307.493 258.017 310.31C262.459 313.127 269.752 316.715 276.278 311.805V311.804Z" fill="#7B5FF1" stroke="#010101" stroke-width="1.5" stroke-linecap="round" stroke-linejoin="round"></path>
<path d="M266.16 170.957C269.162 178.159 272.165 185.361 275.538 192.73C272.857 196.065 270.175 199.4 267.576 202.721C268.834 205.53 270.494 208.159 272.185 210.264C268.498 220.238 263.972 229.901 258.671 239.119" stroke="#010101" stroke-width="1.5" stroke-linecap="round" stroke-linejoin="round"></path>
<path d="M131.685 262.728C133.728 269.263 135.807 275.879 139.43 281.689C148.6 296.394 164.47 298.041 173.879 294.587C185.207 290.429 195.328 283.942 193.111 259.993C192.531 253.723 191.332 247.448 189.886 241.319C168.358 249.326 150.878 253.765 130.764 260.457C130.69 260.457 131.048 260.686 131.686 262.727L131.685 262.728Z" fill="#010101" stroke="#010101" stroke-width="1.5" stroke-linecap="round" stroke-linejoin="round"></path>
<path d="M173.68 229.994C176.28 227.686 177.578 224.298 179.242 221.246C180.01 219.838 180.979 218.39 182.487 217.843C182.673 217.775 182.883 217.724 183.065 217.801C183.25 217.879 183.36 218.07 183.444 218.253C185.196 222.071 181.507 226.752 183.172 230.608" fill="white"></path>
<path d="M173.68 229.994C176.28 227.686 177.578 224.298 179.242 221.246C180.01 219.838 180.979 218.39 182.487 217.843C182.673 217.775 182.883 217.724 183.065 217.801C183.25 217.879 183.36 218.07 183.444 218.253C185.196 222.071 181.507 226.752 183.172 230.608" stroke="#010101" stroke-width="1.5" stroke-linecap="round" stroke-linejoin="round"></path>
<path d="M153.747 235.177C164.738 231.369 175.73 227.56 186.721 223.752C187.089 223.624 187.469 223.495 187.858 223.518C188.946 223.583 189.628 224.856 189.476 225.936C189.324 227.016 188.604 227.916 187.911 228.758C189.331 228.189 190.98 229.514 191.174 231.032C191.368 232.55 190.484 234.021 189.359 235.058C190.749 235.38 191.904 236.552 192.206 237.946C192.508 239.34 191.94 240.885 190.807 241.752C192.124 241.954 193.098 243.224 193.279 244.544C193.713 247.716 189.814 248.826 185.593 250.317C175.736 253.798 166.21 256.521 155.061 260.458C154.728 260.576 148.025 256.95 152.388 237.59C152.554 236.852 152.672 235.55 153.748 235.177H153.747Z" fill="white" stroke="#010101" stroke-width="1.5" stroke-linecap="round" stroke-linejoin="round"></path>
<path d="M111.587 236.578C105.628 241.436 102.526 248.969 100.62 256.417C99.569 260.526 98.806 264.794 99.359 269C99.912 273.206 101.941 277.377 105.488 279.704C109.981 282.652 115.848 282.142 121.139 281.202C134.596 278.811 147.681 274.339 159.98 268.319C158.544 257.004 156.406 245.779 153.871 234.778C143.952 238.721 134.731 242.357 124.712 246.76C123.027 243.924 113.338 236.71 111.587 236.578Z" fill="#7B5FF1" stroke="#010101" stroke-width="1.5" stroke-linecap="round" stroke-linejoin="round"></path>
<path d="M109.048 251.65C114.084 250.253 119.878 248.745 124.712 246.759" stroke="#010101" stroke-width="1.5" stroke-linecap="round" stroke-linejoin="round"></path>
<path d="M249.957 128.783L254.607 136.486C254.818 136.836 255.034 137.273 254.838 137.632C254.733 137.823 254.534 137.94 254.343 138.045C253.174 138.688 251.956 139.244 250.704 139.706" stroke="#010101" stroke-width="1.5" stroke-linecap="round" stroke-linejoin="round"></path>
<path d="M245.352 155.903C248.067 157.454 250.799 157.556 254.089 157.107" stroke="#010101" stroke-width="1.5" stroke-linecap="round" stroke-linejoin="round"></path>
<path d="M246.277 13.149C245.872 15.741 245.467 18.333 245.062 20.925" stroke="#010101" stroke-width="1.5" stroke-linecap="round" stroke-linejoin="round"></path>
<path d="M0.75 112.154C2.659 113.109 4.569 114.063 6.478 115.018" stroke="#010101" stroke-width="1.5" stroke-linecap="round" stroke-linejoin="round"></path>
<path d="M476.562 74.8201C476.022 78.4051 476.108 81.2491 475.568 84.8341C456.725 85.0711 422.076 85.2961 422.076 85.2961C422.076 85.2961 421.472 93.1931 420.961 97.9961" stroke="#010101" stroke-width="1.5" stroke-linecap="round" stroke-linejoin="round"></path>
<path d="M474.927 84.916C511.612 84.874 527.73 85.296 527.73 85.296" stroke="#010101" stroke-width="1.5" stroke-linecap="round" stroke-linejoin="round"></path>
<path d="M527.73 85.296C524.453 115.882 514.629 176.779 514.629 176.779H557.233" stroke="#010101" stroke-width="1.5" stroke-linecap="round" stroke-linejoin="round"></path>
<path d="M546.728 193.128L550.633 160.429H631.381L627.476 193.128H546.728Z" fill="#E3E3FF" stroke="#010101" stroke-width="1.5" stroke-linecap="round" stroke-linejoin="round"></path>
<path d="M514.674 176.502L505.069 243.319L546.178 243.293" stroke="#010101" stroke-width="1.5" stroke-linecap="round" stroke-linejoin="round"></path>
<path d="M536.489 257.669L541.394 224.97H623.142L617.237 257.669H536.489Z" fill="#7B5FF1" stroke="#010101" stroke-width="1.5" stroke-linecap="round" stroke-linejoin="round"></path>
<path d="M524.078 114.097C535.263 113.849 546.396 113.877 557.581 114.097Z" fill="white"></path>
<path d="M524.078 114.097C535.263 113.849 546.396 113.877 557.581 114.097" stroke="#010101" stroke-width="1.5" stroke-linecap="round" stroke-linejoin="round"></path>
<path d="M455.144 274.517C454.271 274.791 453.837 275.946 454.26 276.757C454.683 277.568 455.809 277.89 456.628 277.482C457.44 277.077 457.863 275.996 457.475 275.175C457.087 274.354 456.019 274.242 455.144 274.517Z" fill="#010101" stroke="#010101" stroke-width="1.5" stroke-linecap="round" stroke-linejoin="round"></path>
<path d="M5.38298 201.02C4.82698 201.195 4.54998 201.931 4.81998 202.447C5.08998 202.963 5.80698 203.169 6.32898 202.909C6.84598 202.651 7.11598 201.962 6.86898 201.439C6.62198 200.916 5.94098 200.844 5.38298 201.02Z" fill="#010101" stroke="#010101" stroke-width="1.5" stroke-linecap="round" stroke-linejoin="round"></path>
<path d="M322.07 55.399C321.197 55.673 320.763 56.828 321.186 57.639C321.609 58.45 322.735 58.772 323.554 58.364C324.366 57.959 324.789 56.878 324.401 56.057C324.013 55.236 322.945 55.124 322.07 55.399Z" fill="#010101" stroke="#010101" stroke-width="1.5" stroke-linecap="round" stroke-linejoin="round"></path>
</g>
<defs>
<clipPath id="clip0_35_1629">
<rect width="642.532" height="399.034" fill="white"></rect>
</clipPath>
</defs>
</svg>